<?xml version="1.0" encoding="utf-8"?>
<!-- Generator: Adobe Illustrator 25.0.0, SVG Export Plug-In . SVG Version: 6.00 Build 0)  -->
<svg version="1.1" id="Calque_1" xmlns="http://www.w3.org/2000/svg" xmlns:xlink="http://www.w3.org/1999/xlink" x="0px" y="0px"
	 viewBox="0 0 1006.2 806" style="enable-background:new 0 0 1006.2 806;" xml:space="preserve">
<style type="text/css">
	.st0{fill:#EA5B0F;}
	.st1{fill:#0055A4;}
	.st2{fill:#009DCC;}
</style>
<path class="st0" d="M584.7,771.9c65.4,45.2,194.8-28.6,289.1-165.1C968,470.3,991.4,323.2,925.9,278
	c-65.4-45.2-191.6,24.9-285.8,161.3C545.9,575.8,519.3,726.7,584.7,771.9L584.7,771.9z"/>
<path class="st1" d="M421.5,771.9c-65.4,45.2-194.8-28.6-289.1-165.1C38.2,470.3,14.9,323.2,80.3,278
	c65.4-45.2,191.6,24.9,285.8,161.3C460.3,575.8,486.9,726.7,421.5,771.9z"/>
<g>
	<ellipse class="st2" cx="503.1" cy="164.6" rx="300.6" ry="143.7"/>
</g>
</svg>
