<svg aria-hidden="true" id="Calque_1" data-name="Calque 1" xmlns="http://www.w3.org/2000/svg" viewBox="0 0 300 200"><defs><style>.cls-1{fill:#e2ebc2;}.cls-2,.cls-5,.cls-6{fill:none;}.cls-2,.cls-3,.cls-4,.cls-5{stroke:#000;}.cls-2,.cls-3,.cls-7,.cls-8{stroke-linecap:round;}.cls-2,.cls-3,.cls-4,.cls-7,.cls-8{stroke-linejoin:round;}.cls-2,.cls-3,.cls-4,.cls-5,.cls-7,.cls-8{stroke-width:2px;}.cls-3,.cls-4,.cls-7{fill:#fff;}.cls-5,.cls-6{stroke-miterlimit:10;}.cls-6,.cls-7,.cls-8{stroke:#00a3e0;}.cls-6{stroke-width:3px;stroke-dasharray:6 6;}.cls-8{fill:#00a3e0;}</style></defs><path class="cls-1" d="M219.57,158.24l-19-30.58H179.49a.72.72,0,0,1-.72-.72V99.58H136.16v28.08H73.55V99.58h-12a2,2,0,0,0-1.7,1L24,158.24a2,2,0,0,0,1.7,3H217.87A2,2,0,0,0,219.57,158.24Z"/><line class="cls-2" x1="235.03" y1="56.05" x2="235.03" y2="52.59"/><line class="cls-2" x1="269.82" y1="56.05" x2="269.82" y2="52.59"/><path class="cls-3" d="M248.46,62H231.55a3,3,0,0,1-3-3h0a3,3,0,0,1,3-3h16.91"/><path class="cls-3" d="M256.42,56.05h16.92a3,3,0,0,1,3,3h0a3,3,0,0,1-3,3H256.42"/><line class="cls-2" x1="235.03" y1="62.21" x2="248.43" y2="68.71"/><line class="cls-2" x1="256.42" y1="68.71" x2="269.82" y2="62.02"/><line class="cls-2" x1="235.03" y1="35.59" x2="235.03" y2="32.12"/><line class="cls-2" x1="269.82" y1="35.59" x2="269.82" y2="32.12"/><path class="cls-3" d="M248.46,41.56H231.55a3,3,0,0,1-3-3h0a3,3,0,0,1,3-3h16.91"/><path class="cls-3" d="M256.42,35.59h16.92a3,3,0,0,1,3,3h0a3,3,0,0,1-3,3H256.42"/><line class="cls-2" x1="235.03" y1="41.74" x2="248.43" y2="48.24"/><line class="cls-2" x1="256.42" y1="48.24" x2="269.82" y2="41.56"/><path class="cls-3" d="M256.42,127.66V29.32a4,4,0,0,0-4-4h0a4,4,0,0,0-4,4v98.34Z"/><path class="cls-4" d="M145.55,81a2.38,2.38,0,0,1-1.63-.64l-39.06-36-39.06,36a2.41,2.41,0,1,1-3.27-3.54l40.7-37.47a2.38,2.38,0,0,1,3.26,0l40.69,37.47A2.41,2.41,0,0,1,145.55,81Z"/><polygon class="cls-3" points="136.16 73.22 104.86 44.39 73.55 73.22 73.55 127.66 136.16 127.66 136.16 73.22"/><circle class="cls-5" cx="104.86" cy="71.97" r="7.53"/><path class="cls-5" d="M94.92,127.66V95.05a6.52,6.52,0,0,1,6.53-6.52h6.82a6.52,6.52,0,0,1,6.52,6.52v32.61"/><line class="cls-6" x1="136.16" y1="111.81" x2="178.77" y2="111.81"/><line class="cls-6" x1="207.67" y1="111.81" x2="247.71" y2="111.81"/><path class="cls-7" d="M178.77,100.26v-11a.72.72,0,0,1,.72-.72H207a.72.72,0,0,1,.72.72v37.69a.72.72,0,0,1-.72.72H179.49a.72.72,0,0,1-.72-.72Z"/><polygon class="cls-8" points="190.93 99.92 197.44 99.92 193.97 106.58 198.59 106.58 189.99 116.27 192.45 109.41 187.85 109.41 190.93 99.92"/></svg>